<?xml version="1.0" encoding="UTF-8" standalone="no"?>
<!DOCTYPE svg PUBLIC "-//W3C//DTD SVG 1.1//EN"
 "http://www.w3.org/Graphics/SVG/1.1/DTD/svg11.dtd">
<!-- Generated by graphviz version 2.46.0 (20210119.1425)
 -->
<!-- Title: dependencies Pages: 1 -->
<svg width="3033pt" height="284pt"
 viewBox="0.00 0.00 3033.00 284.00" xmlns="http://www.w3.org/2000/svg" xmlns:xlink="http://www.w3.org/1999/xlink">
<g id="graph0" class="graph" transform="scale(1 1) rotate(0) translate(4 280)">
<title>dependencies</title>
<polygon fill="white" stroke="transparent" points="-4,4 -4,-280 3029,-280 3029,4 -4,4"/>
<text text-anchor="start" x="1491.51" y="-42.4" font-family="sans-serif" font-weight="bold" font-size="14.00">Legend</text>
<polygon fill="#ffffb3" stroke="transparent" points="1278.5,-10 1278.5,-30 1298.5,-30 1298.5,-10 1278.5,-10"/>
<text text-anchor="start" x="1302.13" y="-15.4" font-family="sans-serif" font-size="14.00"> &#160;Declarations</text>
<polygon fill="#8dd3c7" stroke="transparent" points="1391.5,-10 1391.5,-30 1411.5,-30 1411.5,-10 1391.5,-10"/>
<text text-anchor="start" x="1415.23" y="-15.4" font-family="sans-serif" font-size="14.00"> &#160;Module</text>
<polygon fill="#80b1d3" stroke="transparent" points="1477.5,-10 1477.5,-30 1497.5,-30 1497.5,-10 1477.5,-10"/>
<text text-anchor="start" x="1501.28" y="-15.4" font-family="sans-serif" font-size="14.00"> &#160;Bootstrap</text>
<polygon fill="#fdb462" stroke="transparent" points="1574.5,-10 1574.5,-30 1594.5,-30 1594.5,-10 1574.5,-10"/>
<text text-anchor="start" x="1598.17" y="-15.4" font-family="sans-serif" font-size="14.00"> &#160;Providers</text>
<polygon fill="#fb8072" stroke="transparent" points="1670.5,-10 1670.5,-30 1690.5,-30 1690.5,-10 1670.5,-10"/>
<text text-anchor="start" x="1694.23" y="-15.4" font-family="sans-serif" font-size="14.00"> &#160;Exports</text>
<g id="clust1" class="cluster">
<title>cluster_AppModule</title>
<polygon fill="none" stroke="black" stroke-dasharray="1,5" points="8,-70 8,-268 3017,-268 3017,-70 8,-70"/>
</g>
<g id="clust2" class="cluster">
<title>cluster_AppModule_declarations</title>
<polygon fill="none" stroke="black" points="1941,-78 1941,-130 3009,-130 3009,-78 1941,-78"/>
</g>
<g id="clust14" class="cluster">
<title>cluster_AppModule_providers</title>
<polygon fill="none" stroke="black" points="1303,-78 1303,-130 1933,-130 1933,-78 1303,-78"/>
</g>
<g id="clust11" class="cluster">
<title>cluster_AppModule_imports</title>
<polygon fill="none" stroke="black" points="16,-78 16,-130 1295,-130 1295,-78 16,-78"/>
</g>
<g id="clust13" class="cluster">
<title>cluster_AppModule_bootstrap</title>
<polygon fill="none" stroke="black" points="1364,-208 1364,-260 1488,-260 1488,-208 1364,-208"/>
</g>
<!-- AppComponent -->
<g id="node1" class="node">
<title>AppComponent</title>
<polygon fill="#ffffb3" stroke="black" points="3000.94,-122 2895.06,-122 2895.06,-86 3000.94,-86 3000.94,-122"/>
<text text-anchor="middle" x="2948" y="-99.8" font-family="Times,serif" font-size="14.00">AppComponent</text>
</g>
<!-- AppModule -->
<g id="node9" class="node">
<title>AppModule</title>
<polygon fill="#8dd3c7" stroke="black" points="1467.66,-187 1464.66,-191 1443.66,-191 1440.66,-187 1384.34,-187 1384.34,-151 1467.66,-151 1467.66,-187"/>
<text text-anchor="middle" x="1426" y="-164.8" font-family="Times,serif" font-size="14.00">AppModule</text>
</g>
<!-- AppComponent&#45;&gt;AppModule -->
<g id="edge1" class="edge">
<title>AppComponent&#45;&gt;AppModule</title>
<path fill="none" stroke="black" d="M2948,-122.32C2948,-145.66 2948,-183 2948,-183 2948,-183 1477.9,-183 1477.9,-183"/>
<polygon fill="black" stroke="black" points="1477.9,-179.5 1467.9,-183 1477.9,-186.5 1477.9,-179.5"/>
</g>
<!-- ListaComponent -->
<g id="node2" class="node">
<title>ListaComponent</title>
<polygon fill="#ffffb3" stroke="black" points="2877.83,-122 2768.17,-122 2768.17,-86 2877.83,-86 2877.83,-122"/>
<text text-anchor="middle" x="2823" y="-99.8" font-family="Times,serif" font-size="14.00">ListaComponent</text>
</g>
<!-- ListaComponent&#45;&gt;AppModule -->
<g id="edge2" class="edge">
<title>ListaComponent&#45;&gt;AppModule</title>
<path fill="none" stroke="black" d="M2823,-122.16C2823,-144.35 2823,-179 2823,-179 2823,-179 1477.81,-179 1477.81,-179"/>
<polygon fill="black" stroke="black" points="1477.81,-175.5 1467.81,-179 1477.81,-182.5 1477.81,-175.5"/>
</g>
<!-- NuevaComponent -->
<g id="node3" class="node">
<title>NuevaComponent</title>
<polygon fill="#ffffb3" stroke="black" points="2749.87,-122 2632.13,-122 2632.13,-86 2749.87,-86 2749.87,-122"/>
<text text-anchor="middle" x="2691" y="-99.8" font-family="Times,serif" font-size="14.00">NuevaComponent</text>
</g>
<!-- NuevaComponent&#45;&gt;AppModule -->
<g id="edge3" class="edge">
<title>NuevaComponent&#45;&gt;AppModule</title>
<path fill="none" stroke="black" d="M2691,-122.28C2691,-143.32 2691,-175 2691,-175 2691,-175 1477.73,-175 1477.73,-175"/>
<polygon fill="black" stroke="black" points="1477.73,-171.5 1467.73,-175 1477.73,-178.5 1477.73,-171.5"/>
</g>
<!-- DetalleComponent -->
<g id="node4" class="node">
<title>DetalleComponent</title>
<polygon fill="#ffffb3" stroke="black" points="2613.75,-122 2492.25,-122 2492.25,-86 2613.75,-86 2613.75,-122"/>
<text text-anchor="middle" x="2553" y="-99.8" font-family="Times,serif" font-size="14.00">DetalleComponent</text>
</g>
<!-- DetalleComponent&#45;&gt;AppModule -->
<g id="edge4" class="edge">
<title>DetalleComponent&#45;&gt;AppModule</title>
<path fill="none" stroke="black" d="M2553,-122.31C2553,-142.15 2553,-171 2553,-171 2553,-171 1477.78,-171 1477.78,-171"/>
<polygon fill="black" stroke="black" points="1477.78,-167.5 1467.78,-171 1477.78,-174.5 1477.78,-167.5"/>
</g>
<!-- LoginComponent -->
<g id="node5" class="node">
<title>LoginComponent</title>
<polygon fill="#ffffb3" stroke="black" points="2474.28,-122 2359.72,-122 2359.72,-86 2474.28,-86 2474.28,-122"/>
<text text-anchor="middle" x="2417" y="-99.8" font-family="Times,serif" font-size="14.00">LoginComponent</text>
</g>
<!-- LoginComponent&#45;&gt;AppModule -->
<g id="edge5" class="edge">
<title>LoginComponent&#45;&gt;AppModule</title>
<path fill="none" stroke="black" d="M2417,-122.22C2417,-140.83 2417,-167 2417,-167 2417,-167 1477.95,-167 1477.95,-167"/>
<polygon fill="black" stroke="black" points="1477.95,-163.5 1467.95,-167 1477.95,-170.5 1477.95,-163.5"/>
</g>
<!-- RegistroComponent -->
<g id="node6" class="node">
<title>RegistroComponent</title>
<polygon fill="#ffffb3" stroke="black" points="2341.27,-122 2212.73,-122 2212.73,-86 2341.27,-86 2341.27,-122"/>
<text text-anchor="middle" x="2277" y="-99.8" font-family="Times,serif" font-size="14.00">RegistroComponent</text>
</g>
<!-- RegistroComponent&#45;&gt;AppModule -->
<g id="edge6" class="edge">
<title>RegistroComponent&#45;&gt;AppModule</title>
<path fill="none" stroke="black" d="M2277,-122.02C2277,-139.37 2277,-163 2277,-163 2277,-163 1477.91,-163 1477.91,-163"/>
<polygon fill="black" stroke="black" points="1477.91,-159.5 1467.91,-163 1477.91,-166.5 1477.91,-159.5"/>
</g>
<!-- MenuComponent -->
<g id="node7" class="node">
<title>MenuComponent</title>
<polygon fill="#ffffb3" stroke="black" points="2194.99,-122 2081.01,-122 2081.01,-86 2194.99,-86 2194.99,-122"/>
<text text-anchor="middle" x="2138" y="-99.8" font-family="Times,serif" font-size="14.00">MenuComponent</text>
</g>
<!-- MenuComponent&#45;&gt;AppModule -->
<g id="edge7" class="edge">
<title>MenuComponent&#45;&gt;AppModule</title>
<path fill="none" stroke="black" d="M2138,-122.01C2138,-138.05 2138,-159 2138,-159 2138,-159 1477.88,-159 1477.88,-159"/>
<polygon fill="black" stroke="black" points="1477.88,-155.5 1467.88,-159 1477.88,-162.5 1477.88,-155.5"/>
</g>
<!-- IndexComponent -->
<g id="node8" class="node">
<title>IndexComponent</title>
<polygon fill="#ffffb3" stroke="black" points="2062.71,-122 1949.29,-122 1949.29,-86 2062.71,-86 2062.71,-122"/>
<text text-anchor="middle" x="2006" y="-99.8" font-family="Times,serif" font-size="14.00">IndexComponent</text>
</g>
<!-- IndexComponent&#45;&gt;AppModule -->
<g id="edge8" class="edge">
<title>IndexComponent&#45;&gt;AppModule</title>
<path fill="none" stroke="black" d="M2006,-122.12C2006,-136.78 2006,-155 2006,-155 2006,-155 1477.71,-155 1477.71,-155"/>
<polygon fill="black" stroke="black" points="1477.71,-151.5 1467.71,-155 1477.71,-158.5 1477.71,-151.5"/>
</g>
<!-- AppComponent  -->
<g id="node19" class="node">
<title>AppComponent </title>
<polygon fill="#80b1d3" stroke="black" points="1480.44,-252 1371.56,-252 1371.56,-216 1480.44,-216 1480.44,-252"/>
<text text-anchor="middle" x="1426" y="-229.8" font-family="Times,serif" font-size="14.00">AppComponent </text>
</g>
<!-- AppModule&#45;&gt;AppComponent  -->
<g id="edge18" class="edge">
<title>AppModule&#45;&gt;AppComponent </title>
<path fill="none" stroke="black" stroke-dasharray="1,5" d="M1426,-187.11C1426,-187.11 1426,-205.99 1426,-205.99"/>
<polygon fill="black" stroke="black" points="1422.5,-205.99 1426,-215.99 1429.5,-205.99 1422.5,-205.99"/>
</g>
<!-- BrowserModule -->
<g id="node10" class="node">
<title>BrowserModule</title>
<polygon fill="#8dd3c7" stroke="black" points="1287.47,-122 1284.47,-126 1263.47,-126 1260.47,-122 1180.53,-122 1180.53,-86 1287.47,-86 1287.47,-122"/>
<text text-anchor="middle" x="1234" y="-99.8" font-family="Times,serif" font-size="14.00">BrowserModule</text>
</g>
<!-- BrowserModule&#45;&gt;AppModule -->
<g id="edge9" class="edge">
<title>BrowserModule&#45;&gt;AppModule</title>
<path fill="none" stroke="black" d="M1234,-122.12C1234,-136.78 1234,-155 1234,-155 1234,-155 1374.34,-155 1374.34,-155"/>
<polygon fill="black" stroke="black" points="1374.34,-158.5 1384.34,-155 1374.34,-151.5 1374.34,-158.5"/>
</g>
<!-- AppRoutingModule -->
<g id="node11" class="node">
<title>AppRoutingModule</title>
<polygon fill="#8dd3c7" stroke="black" points="1162.27,-122 1159.27,-126 1138.27,-126 1135.27,-122 1033.73,-122 1033.73,-86 1162.27,-86 1162.27,-122"/>
<text text-anchor="middle" x="1098" y="-99.8" font-family="Times,serif" font-size="14.00">AppRoutingModule</text>
</g>
<!-- AppRoutingModule&#45;&gt;AppModule -->
<g id="edge10" class="edge">
<title>AppRoutingModule&#45;&gt;AppModule</title>
<path fill="none" stroke="black" d="M1098,-122.01C1098,-138.05 1098,-159 1098,-159 1098,-159 1374.13,-159 1374.13,-159"/>
<polygon fill="black" stroke="black" points="1374.13,-162.5 1384.13,-159 1374.13,-155.5 1374.13,-162.5"/>
</g>
<!-- NgbModalModule -->
<g id="node12" class="node">
<title>NgbModalModule</title>
<polygon fill="#8dd3c7" stroke="black" points="1016.21,-122 1013.21,-126 992.21,-126 989.21,-122 895.79,-122 895.79,-86 1016.21,-86 1016.21,-122"/>
<text text-anchor="middle" x="956" y="-99.8" font-family="Times,serif" font-size="14.00">NgbModalModule</text>
</g>
<!-- NgbModalModule&#45;&gt;AppModule -->
<g id="edge11" class="edge">
<title>NgbModalModule&#45;&gt;AppModule</title>
<path fill="none" stroke="black" d="M956,-122.03C956,-139.06 956,-162 956,-162 956,-162 1374.29,-162 1374.29,-162"/>
<polygon fill="black" stroke="black" points="1374.29,-165.5 1384.29,-162 1374.29,-158.5 1374.29,-165.5"/>
</g>
<!-- HttpClientModule -->
<g id="node13" class="node">
<title>HttpClientModule</title>
<polygon fill="#8dd3c7" stroke="black" points="878.16,-122 875.16,-126 854.16,-126 851.16,-122 759.84,-122 759.84,-86 878.16,-86 878.16,-122"/>
<text text-anchor="middle" x="819" y="-99.8" font-family="Times,serif" font-size="14.00">HttpClientModule</text>
</g>
<!-- HttpClientModule&#45;&gt;AppModule -->
<g id="edge12" class="edge">
<title>HttpClientModule&#45;&gt;AppModule</title>
<path fill="none" stroke="black" d="M819,-122.27C819,-140.56 819,-166 819,-166 819,-166 1374.28,-166 1374.28,-166"/>
<polygon fill="black" stroke="black" points="1374.28,-169.5 1384.28,-166 1374.28,-162.5 1374.28,-169.5"/>
</g>
<!-- FormsModule -->
<g id="node14" class="node">
<title>FormsModule</title>
<polygon fill="#8dd3c7" stroke="black" points="741.83,-122 738.83,-126 717.83,-126 714.83,-122 646.17,-122 646.17,-86 741.83,-86 741.83,-122"/>
<text text-anchor="middle" x="694" y="-99.8" font-family="Times,serif" font-size="14.00">FormsModule</text>
</g>
<!-- FormsModule&#45;&gt;AppModule -->
<g id="edge13" class="edge">
<title>FormsModule&#45;&gt;AppModule</title>
<path fill="none" stroke="black" d="M694,-122.11C694,-141.34 694,-169 694,-169 694,-169 1374.28,-169 1374.28,-169"/>
<polygon fill="black" stroke="black" points="1374.28,-172.5 1384.28,-169 1374.28,-165.5 1374.28,-172.5"/>
</g>
<!-- NgxSpinnerModule -->
<g id="node15" class="node">
<title>NgxSpinnerModule</title>
<polygon fill="#8dd3c7" stroke="black" points="628.7,-122 625.7,-126 604.7,-126 601.7,-122 501.3,-122 501.3,-86 628.7,-86 628.7,-122"/>
<text text-anchor="middle" x="565" y="-99.8" font-family="Times,serif" font-size="14.00">NgxSpinnerModule</text>
</g>
<!-- NgxSpinnerModule&#45;&gt;AppModule -->
<g id="edge14" class="edge">
<title>NgxSpinnerModule&#45;&gt;AppModule</title>
<path fill="none" stroke="black" d="M565,-122.13C565,-142.57 565,-173 565,-173 565,-173 1374.18,-173 1374.18,-173"/>
<polygon fill="black" stroke="black" points="1374.18,-176.5 1384.18,-173 1374.18,-169.5 1374.18,-176.5"/>
</g>
<!-- BrowserAnimationsModule -->
<g id="node16" class="node">
<title>BrowserAnimationsModule</title>
<polygon fill="#8dd3c7" stroke="black" points="483.3,-122 480.3,-126 459.3,-126 456.3,-122 310.7,-122 310.7,-86 483.3,-86 483.3,-122"/>
<text text-anchor="middle" x="397" y="-99.8" font-family="Times,serif" font-size="14.00">BrowserAnimationsModule</text>
</g>
<!-- BrowserAnimationsModule&#45;&gt;AppModule -->
<g id="edge15" class="edge">
<title>BrowserAnimationsModule&#45;&gt;AppModule</title>
<path fill="none" stroke="black" d="M397,-122.04C397,-143.66 397,-177 397,-177 397,-177 1374.07,-177 1374.07,-177"/>
<polygon fill="black" stroke="black" points="1374.07,-180.5 1384.07,-177 1374.07,-173.5 1374.07,-180.5"/>
</g>
<!-- SwiperModule -->
<g id="node17" class="node">
<title>SwiperModule</title>
<polygon fill="#8dd3c7" stroke="black" points="292.71,-122 289.71,-126 268.71,-126 265.71,-122 193.29,-122 193.29,-86 292.71,-86 292.71,-122"/>
<text text-anchor="middle" x="243" y="-99.8" font-family="Times,serif" font-size="14.00">SwiperModule</text>
</g>
<!-- SwiperModule&#45;&gt;AppModule -->
<g id="edge16" class="edge">
<title>SwiperModule&#45;&gt;AppModule</title>
<path fill="none" stroke="black" d="M243,-122.01C243,-144.49 243,-180 243,-180 243,-180 1374.24,-180 1374.24,-180"/>
<polygon fill="black" stroke="black" points="1374.24,-183.5 1384.24,-180 1374.24,-176.5 1374.24,-183.5"/>
</g>
<!-- ToastrModule.forRoot() -->
<g id="node18" class="node">
<title>ToastrModule.forRoot()</title>
<polygon fill="#8dd3c7" stroke="black" points="175.68,-122 172.68,-126 151.68,-126 148.68,-122 24.32,-122 24.32,-86 175.68,-86 175.68,-122"/>
<text text-anchor="middle" x="100" y="-99.8" font-family="Times,serif" font-size="14.00">ToastrModule.forRoot()</text>
</g>
<!-- ToastrModule.forRoot()&#45;&gt;AppModule -->
<g id="edge17" class="edge">
<title>ToastrModule.forRoot()&#45;&gt;AppModule</title>
<path fill="none" stroke="black" d="M100,-122.15C100,-145.76 100,-184 100,-184 100,-184 1374.13,-184 1374.13,-184"/>
<polygon fill="black" stroke="black" points="1374.13,-187.5 1384.13,-184 1374.13,-180.5 1374.13,-187.5"/>
</g>
<!-- { provide: SWIPER_CONFIG, useValue: DEFAULT_SWIPER_CONFIG } -->
<g id="node20" class="node">
<title>{ provide: SWIPER_CONFIG, useValue: DEFAULT_SWIPER_CONFIG }</title>
<ellipse fill="#fdb462" stroke="black" cx="1618" cy="-104" rx="306.98" ry="18"/>
<text text-anchor="middle" x="1618" y="-99.8" font-family="Times,serif" font-size="14.00">{ provide: SWIPER_CONFIG, useValue: DEFAULT_SWIPER_CONFIG }</text>
</g>
<!-- { provide: SWIPER_CONFIG, useValue: DEFAULT_SWIPER_CONFIG }&#45;&gt;AppModule -->
<g id="edge19" class="edge">
<title>{ provide: SWIPER_CONFIG, useValue: DEFAULT_SWIPER_CONFIG }&#45;&gt;AppModule</title>
<path fill="none" stroke="black" d="M1426,-118.1C1426,-118.1 1426,-140.72 1426,-140.72"/>
<polygon fill="black" stroke="black" points="1422.5,-140.72 1426,-150.72 1429.5,-140.72 1422.5,-140.72"/>
</g>
</g>
</svg>
