<?xml version="1.0" encoding="UTF-8" standalone="no"?>
<!DOCTYPE svg PUBLIC "-//W3C//DTD SVG 1.1//EN"
 "http://www.w3.org/Graphics/SVG/1.1/DTD/svg11.dtd">
<!-- Generated by graphviz version 2.46.0 (20210119.1425)
 -->
<!-- Title: dependencies Pages: 1 -->
<svg width="3378pt" height="290pt"
 viewBox="0.00 0.00 3378.00 290.00" xmlns="http://www.w3.org/2000/svg" xmlns:xlink="http://www.w3.org/1999/xlink">
<g id="graph0" class="graph" transform="scale(1 1) rotate(0) translate(4 286)">
<title>dependencies</title>
<polygon fill="white" stroke="transparent" points="-4,4 -4,-286 3374,-286 3374,4 -4,4"/>
<text text-anchor="start" x="1664.01" y="-42.4" font-family="sans-serif" font-weight="bold" font-size="14.00">Legend</text>
<polygon fill="#ffffb3" stroke="transparent" points="1451,-10 1451,-30 1471,-30 1471,-10 1451,-10"/>
<text text-anchor="start" x="1474.63" y="-15.4" font-family="sans-serif" font-size="14.00"> &#160;Declarations</text>
<polygon fill="#8dd3c7" stroke="transparent" points="1564,-10 1564,-30 1584,-30 1584,-10 1564,-10"/>
<text text-anchor="start" x="1587.73" y="-15.4" font-family="sans-serif" font-size="14.00"> &#160;Module</text>
<polygon fill="#80b1d3" stroke="transparent" points="1650,-10 1650,-30 1670,-30 1670,-10 1650,-10"/>
<text text-anchor="start" x="1673.78" y="-15.4" font-family="sans-serif" font-size="14.00"> &#160;Bootstrap</text>
<polygon fill="#fdb462" stroke="transparent" points="1747,-10 1747,-30 1767,-30 1767,-10 1747,-10"/>
<text text-anchor="start" x="1770.67" y="-15.4" font-family="sans-serif" font-size="14.00"> &#160;Providers</text>
<polygon fill="#fb8072" stroke="transparent" points="1843,-10 1843,-30 1863,-30 1863,-10 1843,-10"/>
<text text-anchor="start" x="1866.73" y="-15.4" font-family="sans-serif" font-size="14.00"> &#160;Exports</text>
<g id="clust1" class="cluster">
<title>cluster_AppModule</title>
<polygon fill="none" stroke="black" stroke-dasharray="1,5" points="8,-70 8,-274 3018,-274 3018,-70 8,-70"/>
</g>
<g id="clust2" class="cluster">
<title>cluster_AppModule_declarations</title>
<polygon fill="none" stroke="black" points="654,-78 654,-130 1722,-130 1722,-78 654,-78"/>
</g>
<g id="clust11" class="cluster">
<title>cluster_AppModule_imports</title>
<polygon fill="none" stroke="black" points="1730,-78 1730,-130 3010,-130 3010,-78 1730,-78"/>
</g>
<g id="clust13" class="cluster">
<title>cluster_AppModule_bootstrap</title>
<polygon fill="none" stroke="black" points="1662,-214 1662,-266 1786,-266 1786,-214 1662,-214"/>
</g>
<g id="clust14" class="cluster">
<title>cluster_AppModule_providers</title>
<polygon fill="none" stroke="black" points="16,-78 16,-130 646,-130 646,-78 16,-78"/>
</g>
<g id="clust15" class="cluster">
<title>cluster_AppRoutingModule</title>
<polygon fill="none" stroke="black" stroke-dasharray="1,5" points="3026,-138 3026,-206 3362,-206 3362,-138 3026,-138"/>
</g>
<g id="clust17" class="cluster">
<title>cluster_AppRoutingModule_imports</title>
<polygon fill="none" stroke="black" points="3160,-146 3160,-198 3354,-198 3354,-146 3160,-146"/>
</g>
<g id="clust18" class="cluster">
<title>cluster_AppRoutingModule_exports</title>
<polygon fill="none" stroke="black" points="3034,-146 3034,-198 3152,-198 3152,-146 3034,-146"/>
</g>
<!-- AppComponent -->
<g id="node1" class="node">
<title>AppComponent</title>
<polygon fill="#ffffb3" stroke="black" points="1713.94,-122 1608.06,-122 1608.06,-86 1713.94,-86 1713.94,-122"/>
<text text-anchor="middle" x="1661" y="-99.8" font-family="Times,serif" font-size="14.00">AppComponent</text>
</g>
<!-- AppModule -->
<g id="node9" class="node">
<title>AppModule</title>
<polygon fill="#8dd3c7" stroke="black" points="1765.66,-190 1762.66,-194 1741.66,-194 1738.66,-190 1682.34,-190 1682.34,-154 1765.66,-154 1765.66,-190"/>
<text text-anchor="middle" x="1724" y="-167.8" font-family="Times,serif" font-size="14.00">AppModule</text>
</g>
<!-- AppComponent&#45;&gt;AppModule -->
<g id="edge1" class="edge">
<title>AppComponent&#45;&gt;AppModule</title>
<path fill="none" stroke="black" d="M1697.95,-122.22C1697.95,-122.22 1697.95,-143.73 1697.95,-143.73"/>
<polygon fill="black" stroke="black" points="1694.45,-143.73 1697.95,-153.73 1701.45,-143.73 1694.45,-143.73"/>
</g>
<!-- ListaComponent -->
<g id="node2" class="node">
<title>ListaComponent</title>
<polygon fill="#ffffb3" stroke="black" points="1590.83,-122 1481.17,-122 1481.17,-86 1590.83,-86 1590.83,-122"/>
<text text-anchor="middle" x="1536" y="-99.8" font-family="Times,serif" font-size="14.00">ListaComponent</text>
</g>
<!-- ListaComponent&#45;&gt;AppModule -->
<g id="edge2" class="edge">
<title>ListaComponent&#45;&gt;AppModule</title>
<path fill="none" stroke="black" d="M1536,-122.28C1536,-137.95 1536,-158 1536,-158 1536,-158 1672.28,-158 1672.28,-158"/>
<polygon fill="black" stroke="black" points="1672.28,-161.5 1682.28,-158 1672.28,-154.5 1672.28,-161.5"/>
</g>
<!-- NuevaComponent -->
<g id="node3" class="node">
<title>NuevaComponent</title>
<polygon fill="#ffffb3" stroke="black" points="1462.87,-122 1345.13,-122 1345.13,-86 1462.87,-86 1462.87,-122"/>
<text text-anchor="middle" x="1404" y="-99.8" font-family="Times,serif" font-size="14.00">NuevaComponent</text>
</g>
<!-- NuevaComponent&#45;&gt;AppModule -->
<g id="edge3" class="edge">
<title>NuevaComponent&#45;&gt;AppModule</title>
<path fill="none" stroke="black" d="M1404,-122.03C1404,-139.06 1404,-162 1404,-162 1404,-162 1672.17,-162 1672.17,-162"/>
<polygon fill="black" stroke="black" points="1672.17,-165.5 1682.17,-162 1672.17,-158.5 1672.17,-165.5"/>
</g>
<!-- DetalleComponent -->
<g id="node4" class="node">
<title>DetalleComponent</title>
<polygon fill="#ffffb3" stroke="black" points="1326.75,-122 1205.25,-122 1205.25,-86 1326.75,-86 1326.75,-122"/>
<text text-anchor="middle" x="1266" y="-99.8" font-family="Times,serif" font-size="14.00">DetalleComponent</text>
</g>
<!-- DetalleComponent&#45;&gt;AppModule -->
<g id="edge4" class="edge">
<title>DetalleComponent&#45;&gt;AppModule</title>
<path fill="none" stroke="black" d="M1266,-122.27C1266,-140.56 1266,-166 1266,-166 1266,-166 1672.14,-166 1672.14,-166"/>
<polygon fill="black" stroke="black" points="1672.14,-169.5 1682.14,-166 1672.14,-162.5 1672.14,-169.5"/>
</g>
<!-- LoginComponent -->
<g id="node5" class="node">
<title>LoginComponent</title>
<polygon fill="#ffffb3" stroke="black" points="1187.28,-122 1072.72,-122 1072.72,-86 1187.28,-86 1187.28,-122"/>
<text text-anchor="middle" x="1130" y="-99.8" font-family="Times,serif" font-size="14.00">LoginComponent</text>
</g>
<!-- LoginComponent&#45;&gt;AppModule -->
<g id="edge5" class="edge">
<title>LoginComponent&#45;&gt;AppModule</title>
<path fill="none" stroke="black" d="M1130,-122.03C1130,-141.58 1130,-170 1130,-170 1130,-170 1672.23,-170 1672.23,-170"/>
<polygon fill="black" stroke="black" points="1672.23,-173.5 1682.23,-170 1672.23,-166.5 1672.23,-173.5"/>
</g>
<!-- RegistroComponent -->
<g id="node6" class="node">
<title>RegistroComponent</title>
<polygon fill="#ffffb3" stroke="black" points="1054.27,-122 925.73,-122 925.73,-86 1054.27,-86 1054.27,-122"/>
<text text-anchor="middle" x="990" y="-99.8" font-family="Times,serif" font-size="14.00">RegistroComponent</text>
</g>
<!-- RegistroComponent&#45;&gt;AppModule -->
<g id="edge6" class="edge">
<title>RegistroComponent&#45;&gt;AppModule</title>
<path fill="none" stroke="black" d="M990,-122.03C990,-142.77 990,-174 990,-174 990,-174 1672.17,-174 1672.17,-174"/>
<polygon fill="black" stroke="black" points="1672.17,-177.5 1682.17,-174 1672.17,-170.5 1672.17,-177.5"/>
</g>
<!-- MenuComponent -->
<g id="node7" class="node">
<title>MenuComponent</title>
<polygon fill="#ffffb3" stroke="black" points="907.99,-122 794.01,-122 794.01,-86 907.99,-86 907.99,-122"/>
<text text-anchor="middle" x="851" y="-99.8" font-family="Times,serif" font-size="14.00">MenuComponent</text>
</g>
<!-- MenuComponent&#45;&gt;AppModule -->
<g id="edge7" class="edge">
<title>MenuComponent&#45;&gt;AppModule</title>
<path fill="none" stroke="black" d="M851,-122.29C851,-144.21 851,-178 851,-178 851,-178 1672.19,-178 1672.19,-178"/>
<polygon fill="black" stroke="black" points="1672.19,-181.5 1682.19,-178 1672.19,-174.5 1672.19,-181.5"/>
</g>
<!-- IndexComponent -->
<g id="node8" class="node">
<title>IndexComponent</title>
<polygon fill="#ffffb3" stroke="black" points="775.71,-122 662.29,-122 662.29,-86 775.71,-86 775.71,-122"/>
<text text-anchor="middle" x="719" y="-99.8" font-family="Times,serif" font-size="14.00">IndexComponent</text>
</g>
<!-- IndexComponent&#45;&gt;AppModule -->
<g id="edge8" class="edge">
<title>IndexComponent&#45;&gt;AppModule</title>
<path fill="none" stroke="black" d="M719,-122.09C719,-145.13 719,-182 719,-182 719,-182 1672.1,-182 1672.1,-182"/>
<polygon fill="black" stroke="black" points="1672.1,-185.5 1682.1,-182 1672.1,-178.5 1672.1,-185.5"/>
</g>
<!-- AppComponent  -->
<g id="node19" class="node">
<title>AppComponent </title>
<polygon fill="#80b1d3" stroke="black" points="1778.44,-258 1669.56,-258 1669.56,-222 1778.44,-222 1778.44,-258"/>
<text text-anchor="middle" x="1724" y="-235.8" font-family="Times,serif" font-size="14.00">AppComponent </text>
</g>
<!-- AppModule&#45;&gt;AppComponent  -->
<g id="edge18" class="edge">
<title>AppModule&#45;&gt;AppComponent </title>
<path fill="none" stroke="black" stroke-dasharray="1,5" d="M1724,-190.22C1724,-190.22 1724,-211.73 1724,-211.73"/>
<polygon fill="black" stroke="black" points="1720.5,-211.73 1724,-221.73 1727.5,-211.73 1720.5,-211.73"/>
</g>
<!-- BrowserModule -->
<g id="node10" class="node">
<title>BrowserModule</title>
<polygon fill="#8dd3c7" stroke="black" points="2855.47,-122 2852.47,-126 2831.47,-126 2828.47,-122 2748.53,-122 2748.53,-86 2855.47,-86 2855.47,-122"/>
<text text-anchor="middle" x="2802" y="-99.8" font-family="Times,serif" font-size="14.00">BrowserModule</text>
</g>
<!-- BrowserModule&#45;&gt;AppModule -->
<g id="edge9" class="edge">
<title>BrowserModule&#45;&gt;AppModule</title>
<path fill="none" stroke="black" d="M2802,-122.09C2802,-145.13 2802,-182 2802,-182 2802,-182 1775.93,-182 1775.93,-182"/>
<polygon fill="black" stroke="black" points="1775.93,-178.5 1765.93,-182 1775.93,-185.5 1775.93,-178.5"/>
</g>
<!-- AppRoutingModule -->
<g id="node11" class="node">
<title>AppRoutingModule</title>
<polygon fill="#8dd3c7" stroke="black" points="3002.27,-122 2999.27,-126 2978.27,-126 2975.27,-122 2873.73,-122 2873.73,-86 3002.27,-86 3002.27,-122"/>
<text text-anchor="middle" x="2938" y="-99.8" font-family="Times,serif" font-size="14.00">AppRoutingModule</text>
</g>
<!-- AppRoutingModule&#45;&gt;AppModule -->
<g id="edge10" class="edge">
<title>AppRoutingModule&#45;&gt;AppModule</title>
<path fill="none" stroke="black" d="M2938,-122.2C2938,-146.36 2938,-186 2938,-186 2938,-186 1775.79,-186 1775.79,-186"/>
<polygon fill="black" stroke="black" points="1775.79,-182.5 1765.79,-186 1775.79,-189.5 1775.79,-182.5"/>
</g>
<!-- RouterModule  -->
<g id="node22" class="node">
<title>RouterModule </title>
<polygon fill="#fb8072" stroke="black" points="3143.65,-190 3042.35,-190 3042.35,-154 3143.65,-154 3143.65,-190"/>
<text text-anchor="middle" x="3093" y="-167.8" font-family="Times,serif" font-size="14.00">RouterModule </text>
</g>
<!-- AppRoutingModule&#45;&gt;RouterModule  -->
<g id="edge21" class="edge">
<title>AppRoutingModule&#45;&gt;RouterModule </title>
<path fill="none" stroke="black" stroke-dasharray="5,2" d="M3002.39,-110C3044.97,-110 3093,-110 3093,-110 3093,-110 3093,-143.73 3093,-143.73"/>
<polygon fill="black" stroke="black" points="3089.5,-143.73 3093,-153.73 3096.5,-143.73 3089.5,-143.73"/>
</g>
<!-- NgbModalModule -->
<g id="node12" class="node">
<title>NgbModalModule</title>
<polygon fill="#8dd3c7" stroke="black" points="2561.21,-122 2558.21,-126 2537.21,-126 2534.21,-122 2440.79,-122 2440.79,-86 2561.21,-86 2561.21,-122"/>
<text text-anchor="middle" x="2501" y="-99.8" font-family="Times,serif" font-size="14.00">NgbModalModule</text>
</g>
<!-- NgbModalModule&#45;&gt;AppModule -->
<g id="edge11" class="edge">
<title>NgbModalModule&#45;&gt;AppModule</title>
<path fill="none" stroke="black" d="M2501,-122.03C2501,-142.77 2501,-174 2501,-174 2501,-174 1775.77,-174 1775.77,-174"/>
<polygon fill="black" stroke="black" points="1775.77,-170.5 1765.77,-174 1775.77,-177.5 1775.77,-170.5"/>
</g>
<!-- HttpClientModule -->
<g id="node13" class="node">
<title>HttpClientModule</title>
<polygon fill="#8dd3c7" stroke="black" points="2423.16,-122 2420.16,-126 2399.16,-126 2396.16,-122 2304.84,-122 2304.84,-86 2423.16,-86 2423.16,-122"/>
<text text-anchor="middle" x="2364" y="-99.8" font-family="Times,serif" font-size="14.00">HttpClientModule</text>
</g>
<!-- HttpClientModule&#45;&gt;AppModule -->
<g id="edge12" class="edge">
<title>HttpClientModule&#45;&gt;AppModule</title>
<path fill="none" stroke="black" d="M2364,-122.03C2364,-141.58 2364,-170 2364,-170 2364,-170 1775.99,-170 1775.99,-170"/>
<polygon fill="black" stroke="black" points="1775.99,-166.5 1765.99,-170 1775.99,-173.5 1775.99,-166.5"/>
</g>
<!-- FormsModule -->
<g id="node14" class="node">
<title>FormsModule</title>
<polygon fill="#8dd3c7" stroke="black" points="2286.83,-122 2283.83,-126 2262.83,-126 2259.83,-122 2191.17,-122 2191.17,-86 2286.83,-86 2286.83,-122"/>
<text text-anchor="middle" x="2239" y="-99.8" font-family="Times,serif" font-size="14.00">FormsModule</text>
</g>
<!-- FormsModule&#45;&gt;AppModule -->
<g id="edge13" class="edge">
<title>FormsModule&#45;&gt;AppModule</title>
<path fill="none" stroke="black" d="M2239,-122.27C2239,-140.56 2239,-166 2239,-166 2239,-166 1775.71,-166 1775.71,-166"/>
<polygon fill="black" stroke="black" points="1775.71,-162.5 1765.71,-166 1775.71,-169.5 1775.71,-162.5"/>
</g>
<!-- NgxSpinnerModule -->
<g id="node15" class="node">
<title>NgxSpinnerModule</title>
<polygon fill="#8dd3c7" stroke="black" points="2173.7,-122 2170.7,-126 2149.7,-126 2146.7,-122 2046.3,-122 2046.3,-86 2173.7,-86 2173.7,-122"/>
<text text-anchor="middle" x="2110" y="-99.8" font-family="Times,serif" font-size="14.00">NgxSpinnerModule</text>
</g>
<!-- NgxSpinnerModule&#45;&gt;AppModule -->
<g id="edge14" class="edge">
<title>NgxSpinnerModule&#45;&gt;AppModule</title>
<path fill="none" stroke="black" d="M2110,-122.03C2110,-139.06 2110,-162 2110,-162 2110,-162 1775.68,-162 1775.68,-162"/>
<polygon fill="black" stroke="black" points="1775.68,-158.5 1765.68,-162 1775.68,-165.5 1775.68,-158.5"/>
</g>
<!-- BrowserAnimationsModule -->
<g id="node16" class="node">
<title>BrowserAnimationsModule</title>
<polygon fill="#8dd3c7" stroke="black" points="2028.3,-122 2025.3,-126 2004.3,-126 2001.3,-122 1855.7,-122 1855.7,-86 2028.3,-86 2028.3,-122"/>
<text text-anchor="middle" x="1942" y="-99.8" font-family="Times,serif" font-size="14.00">BrowserAnimationsModule</text>
</g>
<!-- BrowserAnimationsModule&#45;&gt;AppModule -->
<g id="edge15" class="edge">
<title>BrowserAnimationsModule&#45;&gt;AppModule</title>
<path fill="none" stroke="black" d="M1942,-122.28C1942,-137.95 1942,-158 1942,-158 1942,-158 1775.77,-158 1775.77,-158"/>
<polygon fill="black" stroke="black" points="1775.77,-154.5 1765.77,-158 1775.77,-161.5 1775.77,-154.5"/>
</g>
<!-- SwiperModule -->
<g id="node17" class="node">
<title>SwiperModule</title>
<polygon fill="#8dd3c7" stroke="black" points="1837.71,-122 1834.71,-126 1813.71,-126 1810.71,-122 1738.29,-122 1738.29,-86 1837.71,-86 1837.71,-122"/>
<text text-anchor="middle" x="1788" y="-99.8" font-family="Times,serif" font-size="14.00">SwiperModule</text>
</g>
<!-- SwiperModule&#45;&gt;AppModule -->
<g id="edge16" class="edge">
<title>SwiperModule&#45;&gt;AppModule</title>
<path fill="none" stroke="black" d="M1752.11,-122.22C1752.11,-122.22 1752.11,-143.73 1752.11,-143.73"/>
<polygon fill="black" stroke="black" points="1748.61,-143.73 1752.11,-153.73 1755.61,-143.73 1748.61,-143.73"/>
</g>
<!-- ToastrModule.forRoot() -->
<g id="node18" class="node">
<title>ToastrModule.forRoot()</title>
<polygon fill="#8dd3c7" stroke="black" points="2730.68,-122 2727.68,-126 2706.68,-126 2703.68,-122 2579.32,-122 2579.32,-86 2730.68,-86 2730.68,-122"/>
<text text-anchor="middle" x="2655" y="-99.8" font-family="Times,serif" font-size="14.00">ToastrModule.forRoot()</text>
</g>
<!-- ToastrModule.forRoot()&#45;&gt;AppModule -->
<g id="edge17" class="edge">
<title>ToastrModule.forRoot()&#45;&gt;AppModule</title>
<path fill="none" stroke="black" d="M2655,-122.29C2655,-144.21 2655,-178 2655,-178 2655,-178 1775.81,-178 1775.81,-178"/>
<polygon fill="black" stroke="black" points="1775.81,-174.5 1765.81,-178 1775.81,-181.5 1775.81,-174.5"/>
</g>
<!-- { provide: SWIPER_CONFIG, useValue: DEFAULT_SWIPER_CONFIG } -->
<g id="node20" class="node">
<title>{ provide: SWIPER_CONFIG, useValue: DEFAULT_SWIPER_CONFIG }</title>
<ellipse fill="#fdb462" stroke="black" cx="331" cy="-104" rx="306.98" ry="18"/>
<text text-anchor="middle" x="331" y="-99.8" font-family="Times,serif" font-size="14.00">{ provide: SWIPER_CONFIG, useValue: DEFAULT_SWIPER_CONFIG }</text>
</g>
<!-- { provide: SWIPER_CONFIG, useValue: DEFAULT_SWIPER_CONFIG }&#45;&gt;AppModule -->
<g id="edge19" class="edge">
<title>{ provide: SWIPER_CONFIG, useValue: DEFAULT_SWIPER_CONFIG }&#45;&gt;AppModule</title>
<path fill="none" stroke="black" d="M331,-122.2C331,-146.36 331,-186 331,-186 331,-186 1672.31,-186 1672.31,-186"/>
<polygon fill="black" stroke="black" points="1672.31,-189.5 1682.31,-186 1672.31,-182.5 1672.31,-189.5"/>
</g>
<!-- RouterModule.forRoot(args) -->
<g id="node21" class="node">
<title>RouterModule.forRoot(args)</title>
<polygon fill="#8dd3c7" stroke="black" points="3345.84,-190 3342.84,-194 3321.84,-194 3318.84,-190 3168.16,-190 3168.16,-154 3345.84,-154 3345.84,-190"/>
<text text-anchor="middle" x="3257" y="-167.8" font-family="Times,serif" font-size="14.00">RouterModule.forRoot(args)</text>
</g>
<!-- RouterModule.forRoot(args)&#45;&gt;AppRoutingModule -->
<g id="edge20" class="edge">
<title>RouterModule.forRoot(args)&#45;&gt;AppRoutingModule</title>
<path fill="none" stroke="black" d="M3257,-153.71C3257,-131.79 3257,-98 3257,-98 3257,-98 3012.55,-98 3012.55,-98"/>
<polygon fill="black" stroke="black" points="3012.55,-94.5 3002.55,-98 3012.55,-101.5 3012.55,-94.5"/>
</g>
</g>
</svg>
